<?xml version="1.0" encoding="UTF-8"?>
<!DOCTYPE svg PUBLIC "-//W3C//DTD SVG 1.1//EN" "http://www.w3.org/Graphics/SVG/1.1/DTD/svg11.dtd">
<!-- Creator: CorelDRAW X5 -->
<svg xmlns="http://www.w3.org/2000/svg" xml:space="preserve" width="78mm" height="60mm" style="shape-rendering:geometricPrecision; text-rendering:geometricPrecision; image-rendering:optimizeQuality; fill-rule:evenodd; clip-rule:evenodd"
viewBox="0 0 7800 6000"
 xmlns:xlink="http://www.w3.org/1999/xlink">
 <defs>
  <style type="text/css">
   <![CDATA[
    .fil1 {fill:#DCDFF1}
    .fil0 {fill:url(#id0)}
   ]]>
  </style>
  <linearGradient id="id0" gradientUnits="userSpaceOnUse" x1="1318.94" y1="225.12" x2="6478.38" y2="5774.74">
   <stop offset="0" style="stop-color:#3786FF"/>
   <stop offset="1" style="stop-color:#22539C"/>
  </linearGradient>
 </defs>
 <g id="Ebene_x0020_1">
  <metadata id="CorelCorpID_0Corel-Layer"/>
  <rect class="fil0" x="305" y="304" width="7188" height="5391"/>
  <path class="fil1" d="M2781 1710c-126,132 -208,262 -284,434 -266,594 -44,1261 313,1600 244,232 585,419 1024,412 421,-7 766,-190 1002,-427 243,-243 412,-566 412,-1024 0,-459 -203,-790 -427,-1010 -230,-225 -581,-423 -1024,-412 -455,11 -796,195 -1017,427zm889 -576c773,-63 1294,348 1550,839 92,176 171,379 185,612 31,512 -144,900 -391,1187 -245,284 -588,490 -1052,533 -486,45 -913,-135 -1194,-384 -290,-257 -493,-584 -540,-1052 -54,-532 152,-933 384,-1194 231,-261 592,-502 1059,-540zm1493 178c9,-13 -9,-57 14,-71 157,66 244,239 263,419 -156,15 -268,-84 -356,-164 -92,-83 -177,-191 -227,-306 128,-40 219,73 306,121zm512 754c-189,-72 -312,-209 -412,-370 73,-32 140,45 213,57 35,-96 -16,-218 -43,-299 13,-1 24,-5 28,-14 163,107 265,373 213,626zm107 348c-74,-24 -125,-95 -178,-149 -50,-52 -128,-105 -128,-185 64,-31 127,56 206,57 67,-112 4,-317 43,-448 -1,-30 11,0 21,0 143,143 179,551 36,725zm185 -419c172,248 28,661 -156,789 -65,-38 -114,-115 -156,-185 -41,-68 -104,-148 -85,-228 51,-8 141,78 213,100 113,-103 128,-340 185,-476zm-192 1173c-90,-107 -166,-265 -178,-427 88,-5 127,116 199,156 168,-104 234,-311 320,-498 0,0 41,-13 43,-7 40,398 -103,674 -384,775zm434 -412c8,-1 13,2 14,7 -6,442 -181,715 -569,775 -26,-63 -60,-153 -78,-242 -17,-84 -50,-194 0,-256 74,33 93,182 164,242 222,-110 329,-335 469,-526zm-43 547c-66,332 -290,606 -704,590 -53,-145 -66,-470 43,-562 32,112 49,240 121,313 265,-29 367,-221 540,-341zm-846 370c24,102 46,206 78,299 173,22 317,-23 455,-57 -98,195 -350,307 -640,263 -17,-193 11,-400 107,-505zm-199 277c5,0 9,0 14,0 -5,97 12,173 7,270 120,56 293,13 427,0 12,17 -34,69 -64,92 -122,97 -387,180 -597,92 20,-175 87,-363 213,-455zm-242 306c29,33 -27,100 -21,156 20,30 86,13 100,50 -11,49 -77,46 -121,57 -194,47 -493,8 -668,92 79,54 273,-8 363,36 3,41 -60,43 -107,71 -33,20 -55,63 -92,71 -81,17 -368,-66 -370,-142 -1,-52 126,-114 171,-135 76,-35 160,-71 220,-85 215,-49 405,-51 526,-171zm-2083 0c242,182 710,139 910,363 0,21 0,43 0,64 -33,46 -99,59 -164,78 -56,16 -135,52 -192,43 -78,-13 -116,-120 -199,-114 22,-33 -15,-26 -21,-50 85,-21 256,6 363,-14 -197,-118 -625,-6 -789,-156 24,-26 68,-31 107,-43 18,-54 -39,-109 -14,-171zm-36 171c-75,21 -154,34 -235,28 -183,-13 -370,-94 -419,-235 140,10 277,47 419,14 21,-81 -14,-247 28,-284 124,103 194,261 206,476zm-380 -724c84,118 96,296 81,490 -286,43 -565,-73 -633,-270 125,7 273,77 434,50 59,-66 57,-188 91,-270l27 1zm-865 -399c166,126 260,304 514,341 41,9 103,-232 147,-313 92,116 87,419 36,576 -317,14 -511,-146 -626,-370 -39,-76 -81,-170 -71,-234zm682 476c-14,62 5,-21 0,0l0 0zm-715 -1005c131,199 228,387 445,500 88,-52 100,-216 166,-242 36,185 -18,386 -81,519 -379,-59 -537,-340 -569,-747 11,-18 39,-31 39,-31zm388 123c84,-39 104,-143 206,-163 1,155 -88,337 -178,448 -282,-105 -421,-389 -391,-782l21 -14c11,-2 181,397 341,512zm-164 -903c52,166 76,360 178,476 88,-24 148,-74 220,-114 9,172 -138,346 -242,441 -172,-146 -321,-493 -185,-775l28 -28zm242 -297c32,110 -23,320 36,439 94,3 145,-73 220,-64 2,87 -75,144 -128,199 -55,57 -109,128 -185,157 -129,-168 -127,-543 7,-704 22,-14 32,-23 50,-27zm270 -257c34,94 -59,182 -35,313 88,-9 137,-58 220,-71 15,49 -26,91 -57,128 -87,104 -207,221 -348,270 -61,-265 48,-532 213,-640 2,0 5,0 7,0zm590 -263c-24,141 -127,243 -213,327 -86,84 -200,171 -355,178 -29,-152 117,-414 270,-441 -2,24 6,58 -7,71 100,-47 162,-131 306,-135zm-203 1179c0,20 -16,35 -36,35 -20,0 -36,-16 -36,-35 0,-20 16,-36 36,-36 20,0 36,16 36,36zm102 199c0,24 -19,43 -43,43 -23,0 -43,-19 -43,-43 0,-24 19,-43 43,-43 24,0 43,19 43,43zm-104 379c0,24 -19,43 -43,43 -24,0 -43,-19 -43,-43 0,-24 19,-43 43,-43 24,0 43,19 43,43zm33 156c0,24 -19,43 -43,43 -24,0 -43,-19 -43,-43 0,-23 19,-43 43,-43 24,0 43,19 43,43zm28 301c0,20 -16,36 -36,36 -20,0 -36,-16 -36,-36 0,-19 16,-35 36,-35 20,0 36,16 36,35zm431 -1429c0,24 -19,43 -43,43 -24,0 -43,-19 -43,-43 0,-24 19,-43 43,-43 24,0 43,19 43,43zm460 24c0,23 -19,43 -43,43 -24,0 -43,-19 -43,-43 0,-24 19,-43 43,-43 24,0 43,19 43,43zm1147 76c0,23 -19,43 -43,43 -24,0 -43,-19 -43,-43 0,-24 19,-43 43,-43 24,0 43,19 43,43zm-389 -607c0,24 -19,43 -43,43 -24,0 -43,-19 -43,-43 0,-24 19,-43 43,-43 24,0 43,19 43,43zm-967 57c0,24 -19,43 -43,43 -24,0 -43,-19 -43,-43 0,-24 19,-43 43,-43 24,0 43,19 43,43zm277 137c0,20 -16,36 -36,36 -20,0 -36,-16 -36,-36 0,-20 16,-35 36,-35 20,0 36,16 36,35zm120 155c0,20 -16,36 -36,36 -20,0 -36,-16 -36,-36 0,-20 16,-36 36,-36 20,0 36,16 36,36zm1006 366c0,16 -13,28 -28,28 -16,0 -29,-13 -29,-28 0,-16 13,-28 29,-28 16,0 28,13 28,28zm29 104c0,16 -13,28 -29,28 -16,0 -28,-13 -28,-28 0,-16 13,-29 28,-29 16,0 29,13 29,29zm-737 -768c0,20 -16,35 -36,35 -20,0 -36,-16 -36,-35 0,-20 16,-36 36,-36 20,0 36,16 36,36zm-720 483c0,20 -16,36 -36,36 -20,0 -36,-16 -36,-36 0,-20 16,-35 36,-35 20,0 36,16 36,35zm1057 237c0,20 -16,36 -36,36 -20,0 -36,-16 -36,-36 0,-20 16,-36 36,-36 20,0 36,16 36,36zm170 18c0,20 -16,36 -36,36 -20,0 -36,-16 -36,-36 0,-19 16,-35 36,-35 20,0 36,16 36,35zm116 81c0,20 -16,36 -36,36 -20,0 -36,-16 -36,-36 0,-20 16,-36 36,-36 20,0 36,16 36,36zm27 -591c0,19 -16,35 -36,35 -20,0 -36,-16 -36,-35 0,-20 16,-36 36,-36 20,0 36,16 36,36zm-1510 1583c0,24 -19,43 -43,43 -24,0 -43,-19 -43,-43 0,-23 19,-43 43,-43 24,0 43,19 43,43zm185 389c0,23 -19,43 -43,43 -24,0 -43,-19 -43,-43 0,-24 19,-43 43,-43 24,0 43,19 43,43zm777 -62c0,23 -19,43 -43,43 -24,0 -43,-19 -43,-43 0,-24 19,-43 43,-43 24,0 43,19 43,43zm-137 -247c0,24 -19,43 -43,43 -24,0 -43,-19 -43,-43 0,-23 19,-43 43,-43 24,0 43,19 43,43zm469 -901c0,23 -19,43 -43,43 -24,0 -43,-19 -43,-43 0,-24 19,-43 43,-43 24,0 43,19 43,43zm-630 237c0,24 -19,43 -43,43 -24,0 -43,-19 -43,-43 0,-23 19,-43 43,-43 24,0 43,19 43,43zm95 223c0,24 -19,43 -43,43 -24,0 -43,-19 -43,-43 0,-24 19,-43 43,-43 24,0 43,19 43,43zm211 -211c0,24 -19,43 -43,43 -23,0 -43,-19 -43,-43 0,-24 19,-43 43,-43 24,0 43,19 43,43zm671 -751c0,16 -13,28 -29,28 -16,0 -28,-13 -28,-28 0,-16 13,-29 28,-29 16,0 29,13 29,29zm128 346c0,16 -13,28 -28,28 -16,0 -29,-13 -29,-28 0,-16 13,-28 29,-28 16,0 28,13 28,28zm-938 811c0,16 -13,28 -28,28 -16,0 -28,-13 -28,-28 0,-16 13,-28 28,-28 16,0 28,13 28,28zm303 -455c0,16 -13,28 -28,28 -16,0 -28,-13 -28,-28 0,-16 13,-28 28,-28 16,0 28,13 28,28zm-626 484c0,15 -13,28 -29,28 -16,0 -28,-13 -28,-28 0,-16 13,-28 28,-28 16,0 29,13 29,28zm-218 -133c0,16 -13,29 -28,29 -16,0 -28,-13 -28,-29 0,-16 13,-28 28,-28 16,0 28,13 28,28zm0 -464c0,16 -13,28 -28,28 -16,0 -28,-13 -28,-28 0,-16 13,-28 28,-28 16,0 28,13 28,28zm346 -28c0,16 -13,28 -28,28 -16,0 -29,-13 -29,-28 0,-16 13,-28 29,-28 16,0 28,13 28,28zm-706 858c0,16 -13,28 -28,28 -16,0 -28,-13 -28,-28 0,-16 13,-29 28,-29 16,0 28,13 28,29zm-209 209c0,16 -13,28 -28,28 -16,0 -28,-13 -28,-28 0,-16 13,-28 28,-28 16,0 28,13 28,28zm121 -602c0,20 -16,36 -36,36 -20,0 -36,-16 -36,-36 0,-20 16,-36 36,-36 20,0 36,16 36,36zm-114 -294c0,20 -16,36 -36,36 -20,0 -36,-16 -36,-36 0,-20 16,-36 36,-36 20,0 36,16 36,36zm943 -337c0,20 -16,36 -36,36 -20,0 -36,-16 -36,-36 0,-19 16,-35 36,-35 20,0 36,16 36,35zm431 29c0,20 -16,36 -36,36 -20,0 -36,-16 -36,-36 0,-20 16,-35 36,-35 20,0 36,16 36,35zm152 -24c0,20 -16,36 -36,36 -20,0 -36,-16 -36,-36 0,-20 16,-35 36,-35 20,0 36,16 36,35zm261 142c0,20 -16,35 -36,35 -20,0 -36,-16 -36,-35 0,-20 16,-36 36,-36 20,0 36,16 36,36zm-109 -28c0,20 -16,35 -36,35 -20,0 -36,-16 -36,-35 0,-20 16,-36 36,-36 20,0 36,16 36,36zm-90 265c0,20 -16,36 -36,36 -20,0 -36,-16 -36,-36 0,-20 16,-36 36,-36 20,0 36,16 36,36zm-82 -117c0,19 -16,35 -36,35 -20,0 -36,-16 -36,-35 0,-20 16,-36 36,-36 20,0 36,16 36,36zm-271 317c0,20 -16,35 -36,35 -20,0 -36,-16 -36,-35 0,-20 16,-36 36,-36 20,0 36,16 36,36zm514 0c0,20 -16,35 -36,35 -20,0 -36,-16 -36,-35 0,-20 16,-36 36,-36 20,0 36,16 36,36zm-308 -91c0,20 -16,35 -36,35 -20,0 -36,-16 -36,-35 0,-20 16,-36 36,-36 20,0 36,16 36,36zm626 -48c0,20 -16,36 -36,36 -20,0 -36,-16 -36,-36 0,-19 16,-35 36,-35 20,0 36,16 36,35zm-152 692c0,19 -16,35 -36,35 -20,0 -36,-16 -36,-35 0,-20 16,-36 36,-36 20,0 36,16 36,36zm-796 493c0,20 -16,36 -36,36 -20,0 -36,-16 -36,-36 0,-20 16,-36 36,-36 20,0 36,16 36,36zm-137 -360c0,20 -16,36 -36,36 -20,0 -36,-16 -36,-36 0,-20 16,-35 36,-35 20,0 36,16 36,35zm95 52c0,20 -16,36 -36,36 -20,0 -36,-16 -36,-36 0,-20 16,-35 36,-35 20,0 36,16 36,35zm137 -270c0,20 -16,36 -36,36 -20,0 -36,-16 -36,-36 0,-20 16,-35 36,-35 20,0 36,16 36,35zm-95 47c0,20 -16,36 -36,36 -20,0 -36,-16 -36,-36 0,-19 16,-35 36,-35 20,0 36,16 36,35zm-773 157c0,20 -16,35 -36,35 -20,0 -36,-16 -36,-35 0,-20 16,-36 36,-36 20,0 36,16 36,36zm85 -85c0,20 -16,36 -36,36 -20,0 -36,-16 -36,-36 0,-19 16,-35 36,-35 20,0 36,16 36,35zm-271 236c0,20 -16,36 -36,36 -20,0 -36,-16 -36,-36 0,-20 16,-36 36,-36 20,0 36,16 36,36zm210 -444c0,20 -16,35 -36,35 -20,0 -36,-16 -36,-35 0,-20 16,-36 36,-36 20,0 36,16 36,36zm38 -199c0,19 -16,35 -36,35 -20,0 -36,-16 -36,-35 0,-20 16,-36 36,-36 20,0 36,16 36,36zm-114 0c0,19 -16,35 -36,35 -20,0 -36,-16 -36,-35 0,-20 16,-36 36,-36 20,0 36,16 36,36zm246 156c0,20 -16,35 -36,35 -20,0 -36,-16 -36,-35 0,-20 16,-36 36,-36 20,0 36,16 36,36zm269 -305c0,20 -16,35 -36,35 -20,0 -36,-16 -36,-35 0,-20 16,-36 36,-36 20,0 36,16 36,36zm140 -140c0,20 -16,36 -36,36 -20,0 -36,-16 -36,-36 0,-19 16,-35 36,-35 20,0 36,16 36,35zm-214 23c0,20 -16,36 -36,36 -20,0 -36,-16 -36,-36 0,-20 16,-35 36,-35 20,0 36,16 36,35zm167 133c0,10 -8,18 -18,18 -10,0 -18,-8 -18,-18 0,-10 8,-18 18,-18 10,0 18,8 18,18zm-692 -175c0,10 -8,18 -18,18 -10,0 -18,-8 -18,-18 0,-10 8,-18 18,-18 10,0 18,8 18,18zm-128 749c0,10 -8,18 -18,18 -10,0 -18,-8 -18,-18 0,-10 8,-18 18,-18 10,0 18,8 18,18zm2077 -1389c0,23 -19,43 -43,43 -24,0 -43,-19 -43,-43 0,-24 19,-43 43,-43 24,0 43,19 43,43zm-152 242c0,24 -19,43 -43,43 -23,0 -43,-19 -43,-43 0,-23 19,-43 43,-43 24,0 43,19 43,43zm175 90c0,23 -19,43 -43,43 -24,0 -43,-19 -43,-43 0,-24 19,-43 43,-43 24,0 43,19 43,43zm-47 625c0,24 -19,43 -43,43 -24,0 -43,-19 -43,-43 0,-24 19,-43 43,-43 24,0 43,19 43,43zm-1194 138c0,29 -23,52 -52,52 -29,0 -52,-23 -52,-52 0,-29 23,-52 52,-52 29,0 52,23 52,52zm-308 137c0,37 -30,67 -66,67 -37,0 -66,-30 -66,-67 0,-37 30,-66 66,-66 37,0 66,30 66,66zm-526 -100c0,39 -32,71 -71,71 -39,0 -71,-32 -71,-71 0,-39 32,-71 71,-71 39,0 71,32 71,71zm986 -1334c0,0 18,152 52,187 33,34 177,55 191,57 -31,-1 -160,-4 -191,-9 -34,-6 -57,-31 -57,-31 0,0 -18,25 -52,31 -31,5 -155,9 -186,9 14,-2 158,-23 191,-57 34,-35 52,-187 52,-187zm243 244c-14,2 -158,23 -191,57 -34,35 -52,187 -52,187 0,0 -18,-152 -52,-187 -33,-34 -177,-55 -191,-57 31,1 155,4 186,9 34,6 57,31 57,31 0,0 18,-25 52,-31 31,-5 160,-9 191,-9zm-875 158c0,0 26,226 77,278 50,51 267,82 285,85 -39,-1 -238,-6 -285,-14 -50,-9 -77,-46 -77,-46 0,0 -26,38 -77,46 -47,8 -245,13 -285,14 18,-2 234,-34 285,-85 51,-51 77,-278 77,-278zm361 363c-18,2 -234,34 -285,85 -50,51 -77,278 -77,278 0,0 -26,-226 -77,-278 -50,-51 -267,-82 -285,-85 39,1 238,6 285,14 51,9 77,46 77,46 0,0 26,-38 77,-46 47,-8 245,-13 285,-14zm549 78c0,0 17,143 49,176 31,32 166,52 180,54 -30,-1 -151,-4 -180,-9 -32,-6 -49,-29 -49,-29 0,0 -17,24 -49,29 -29,5 -150,8 -180,9 14,-2 149,-22 180,-54 32,-33 49,-176 49,-176zm229 230c-14,2 -149,22 -180,54 -32,33 -49,176 -49,176 0,0 -17,-144 -49,-176 -31,-32 -166,-52 -180,-54 30,1 151,4 180,9 32,5 49,30 49,30 0,0 17,-24 49,-30 29,-5 150,-8 180,-9z"/>
 </g>
</svg>
